<svg width="16" height="16" viewBox="0 0 16 16" fill="none" xmlns="http://www.w3.org/2000/svg">
<path d="M7.99985 0C4.75213 0 2.10962 2.64251 2.10962 5.89056C2.10962 6.73777 2.28302 7.54667 2.62476 8.29499C4.09748 11.5176 6.9211 14.9201 7.75161 15.886C7.81383 15.9582 7.90455 15.9998 8.00001 15.9998C8.09547 15.9998 8.18619 15.9582 8.24841 15.886C9.0786 14.9203 11.9022 11.518 13.3754 8.29499C13.7173 7.54667 13.8906 6.73777 13.8906 5.89056C13.8902 2.64251 11.2477 0 7.99985 0ZM7.99985 8.95013C6.31278 8.95013 4.94011 7.57746 4.94011 5.89039C4.94011 4.20317 6.31278 2.83049 7.99985 2.83049C9.68691 2.83049 11.0596 4.20317 11.0596 5.89039C11.0597 7.57746 9.68707 8.95013 7.99985 8.95013Z" fill="#029F59"/>
</svg>
